<svg width="176" height="32" viewBox="0 0 176 32" fill="none" xmlns="http://www.w3.org/2000/svg">
<g transform="translate(0.000000,256.000000) scale(0.100000,-0.100000)"
fill="#000000" stroke="none">
<path d="M132 2239 c-46 -14 -109 -80 -122 -128 -7 -27 -9 -297 -8 -848 3
-774 4 -810 22 -847 11 -21 37 -51 59 -67 l40 -29 1154 0 c1286 0 1195 -5
1251 68 l27 35 3 846 c3 956 8 885 -77 946 l-43 30 -1136 2 c-700 1 -1150 -2
-1170 -8z m2318 -54 c64 -33 60 24 60 -906 l0 -847 -31 -31 -31 -31 -1162 0
c-1036 0 -1164 2 -1184 16 -54 37 -52 7 -52 894 0 906 -3 860 63 900 31 19 59
20 1170 20 990 0 1142 -2 1167 -15z"/>
<path d="M2272 2134 c-54 -37 -66 -110 -28 -167 13 -19 23 -37 20 -39 -3 -4
-86 -226 -157 -421 -31 -84 -33 -88 -70 -98 -21 -5 -47 -19 -58 -30 -19 -19
-25 -20 -69 -9 l-47 11 -5 107 c-8 174 -68 311 -192 435 -271 273 -739 242
-972 -66 -98 -129 -141 -273 -131 -437 11 -170 62 -283 185 -412 l83 -86 -26
-51 c-22 -44 -29 -51 -55 -51 -16 0 -40 -5 -54 -11 -21 -10 -31 -6 -83 30 -56
41 -58 44 -59 89 -1 39 -7 51 -38 79 -61 56 -147 39 -181 -37 -14 -32 -15 -41
-2 -78 l14 -41 -55 -76 c-56 -75 -56 -75 -103 -75 -53 0 -90 -23 -109 -69 -25
-61 16 -140 82 -156 37 -9 93 11 118 42 22 28 27 91 9 124 -9 17 -2 32 46 95
52 70 58 74 95 74 21 0 50 5 64 11 21 10 31 6 86 -32 52 -36 60 -46 55 -66 -3
-12 1 -38 9 -56 33 -80 117 -101 180 -46 46 40 55 85 28 137 l-20 39 25 44
c15 24 28 46 29 48 2 2 30 -8 62 -22 173 -78 379 -75 543 8 26 14 51 25 53 25
3 0 91 -101 196 -225 105 -123 205 -235 222 -247 47 -33 134 -37 193 -8 61 30
105 93 111 163 9 87 -16 120 -212 287 -94 80 -198 168 -230 196 l-58 51 33 72
c18 40 36 84 40 99 7 24 12 27 46 25 45 -3 55 -11 69 -55 13 -37 67 -78 105
-78 37 0 87 34 106 71 20 37 14 85 -16 122 l-20 26 97 260 c80 214 101 261
116 261 32 0 77 29 93 60 26 50 20 97 -19 136 -28 28 -41 34 -78 34 -24 0 -54
-7 -66 -16z m102 -60 c50 -49 -24 -124 -76 -77 -36 33 -13 93 37 93 13 0 31
-7 39 -16z m-1021 -39 c168 -44 316 -165 386 -316 46 -98 61 -164 61 -259 0
-95 -15 -161 -61 -258 -90 -195 -308 -332 -524 -332 -165 1 -303 58 -421 175
-116 114 -174 253 -174 417 0 167 53 292 175 413 85 85 149 124 260 156 76 22
221 24 298 4z m752 -709 c12 -18 13 -30 6 -49 -19 -50 -94 -44 -107 9 -14 56
69 89 101 40z m-338 -288 c13 -12 23 -26 23 -33 0 -6 -30 -40 -66 -75 l-65
-65 -30 35 -29 34 62 63 c34 35 67 63 72 63 5 0 20 -10 33 -22z m-1281 -82
c13 -22 14 -29 2 -53 -11 -23 -20 -28 -48 -28 -27 0 -38 6 -49 26 -13 24 -13
29 2 53 23 35 70 36 93 2z m1557 -155 c122 -103 149 -130 158 -162 16 -53 -1
-108 -46 -148 -30 -26 -44 -31 -88 -31 -39 0 -58 5 -78 23 -24 20 -142 156
-248 285 l-44 53 73 74 73 74 27 -22 c14 -12 92 -78 173 -146z m-1247 -66 c19
-28 11 -60 -18 -76 -51 -27 -105 29 -73 77 21 33 69 33 91 -1z m-562 -116 c24
-35 -4 -88 -46 -89 -24 0 -58 35 -58 59 0 49 75 70 104 30z"/>
<path d="M1058 1961 c-154 -50 -282 -170 -339 -320 -27 -70 -36 -213 -20 -293
47 -227 273 -408 508 -408 239 0 439 155 508 394 23 80 16 228 -14 306 -57
149 -189 274 -339 320 -84 26 -224 26 -304 1z m295 -62 c327 -109 425 -515
184 -762 -151 -155 -393 -182 -576 -63 -81 52 -130 110 -172 202 -27 58 -33
85 -37 164 -3 79 -1 106 18 160 50 149 155 255 298 301 81 26 205 25 285 -2z"/>
<path d="M1182 1838 c-9 -12 -202 -343 -291 -501 -18 -32 -30 -64 -27 -72 8
-22 671 -22 679 -1 3 8 -43 99 -102 203 -229 401 -231 404 -259 371z m154
-308 l124 -215 -251 -3 c-139 -1 -254 0 -256 2 -7 7 241 436 251 433 5 -2 64
-99 132 -217z"/>
<path d="M1176 1625 c-3 -9 -6 -49 -6 -89 0 -79 15 -114 44 -103 14 6 16 20
14 104 -3 91 -4 98 -24 101 -13 2 -24 -4 -28 -13z"/>
<path d="M1177 1386 c-8 -20 19 -47 39 -39 8 3 14 15 12 27 -4 25 -43 34 -51
12z"/>
</g>
</svg>
